<?xml-stylesheet type="text/css" href="../../../css/sass/style.css" ?>
<svg class="header-icebreaker-logo" version="1.1" xmlns="http://www.w3.org/2000/svg" xmlns:xlink="http://www.w3.org/1999/xlink" x="0px"
	 y="0px" viewBox="0 0 346 35.6" style="enable-background:new 0 0 346 35.6;" xml:space="preserve">
<path fill="#ffffff" d="M49.1,11.5h-5.1v23.4h5.1V11.5z M49.8,2.6c0-1.2-1.2-2.5-3.2-2.5c-2,0-3.2,1.3-3.2,2.5c0,1.3,0.7,2.9,3.2,2.9
	S49.8,3.9,49.8,2.6 M61.5,22.9c0-6.4,5.2-8.9,9.8-8.9c2.1,0,4.2,0.6,5.8,1.2l1.7-2.4c-2.1-1.3-4.7-1.9-7.5-1.9
	C60.7,11,56,17.3,56,23.2c0,3.2,1.7,12.3,15,12.3c2.4,0,5.7-0.8,8.5-2.4l-1.4-2.3c-2.2,1.2-4.4,1.7-6.8,1.7
	C64.5,32.4,61.5,27.8,61.5,22.9 M103.8,20.7h-14c0.2-3,2.3-6.7,7.7-6.7C102,13.9,103.8,17,103.8,20.7 M108.4,23.5
	C109,17.4,106.1,11,97.6,11c-6.3,0-13.3,3.7-13.3,11.8c0,8.2,5.8,12.7,14.5,12.7c2.9,0,6.4-1,9.3-2.7l-1.5-2.3c-2,1.2-5.1,2-7.7,2
	c-5.6,0-9.5-4.3-9.5-9H108.4z M137.5,22.5c0,4.3-1.8,9.9-7.9,9.9c-6.3,0-8.8-4.3-8.8-8.8c0-6,3.1-9.7,8.8-9.7
	C134.9,13.9,137.5,18.3,137.5,22.5 M142.9,22.5c0-3.4-1.8-11.5-12.7-11.5c-3.1,0-7.1,1.4-9.2,4.2h-0.1V0.5h-5.1v34.4h5.1v-3.1h0.1
	c2.1,2.2,5.1,3.6,8.6,3.6C137.9,35.5,142.9,29.6,142.9,22.5 M163.4,16l2.3-2.7c-1.6-1.5-3.4-2.3-4.7-2.3c-1.2,0-3,0.7-4.2,1.7
	l-2,1.8v-2.9h-4.9v23.4h5.1V22.3c0-5.2,2.1-7.3,4.7-7.3C160.9,15,162.1,15.4,163.4,16 M187.7,20.7h-14c0.2-3,2.3-6.7,7.7-6.7
	C185.9,13.9,187.7,17,187.7,20.7 M192.3,23.5c0.6-6.1-2.3-12.5-10.8-12.5c-6.3,0-13.3,3.7-13.3,11.8c0,8.2,5.8,12.7,14.5,12.7
	c2.9,0,6.4-1,9.3-2.7l-1.5-2.3c-2,1.2-5.1,2-7.7,2c-5.6,0-9.5-4.3-9.5-9H192.3z M207.5,32.2c-2,0-4-1.5-4-4c0-2.9,2.3-4.7,6.7-5.8
	l4.8-1.2C215.7,28.5,211.1,32.2,207.5,32.2 M215.9,34.9h5.5c-1-1.7-1.2-3.9-1.2-5.7V18.9c0-6.8-6.2-7.9-10.4-7.9
	c-3.9,0-6.8,0.9-9.6,3.2l2,2.1c2-1.4,4.1-2.5,7.3-2.5c2.7,0,5.4,1.8,5.6,4.7l-6.8,1.8c-5.8,1.4-10,4-10,8.1c0,4.4,3.3,7.2,8,7.2
	c2.6,0,5.1-1.5,7-3.1l1.8-1.4C215.1,32.4,215.2,33.9,215.9,34.9 M252.9,34.9l-13.2-13.4l12.1-10.6L246,11L235,21h-0.8V0.5h-5v34.4h5
	V22.1h0.1l12,12.8H252.9z M274.7,20.7h-14c0.2-3,2.3-6.7,7.7-6.7C272.8,13.9,274.7,17,274.7,20.7 M279.3,23.5
	c0.6-6.1-2.3-12.5-10.8-12.5c-6.3,0-13.3,3.7-13.3,11.8c0,8.2,5.8,12.7,14.5,12.7c2.9,0,6.4-1,9.3-2.7l-1.5-2.3c-2,1.2-5.1,2-7.7,2
	c-5.6,0-9.5-4.3-9.5-9H279.3z M302.6,13.2c-1.6-1.5-3.4-2.3-4.7-2.3c-1.2,0-3,0.7-4.2,1.7l-2,1.8v-2.9h-4.9v23.4h5.1V22.3
	c0-5.2,2.1-7.3,4.7-7.3c1.3,0,2.5,0.5,3.8,1L302.6,13.2z"/>
</svg>
